#!OML:ASF I:\Actors\actors\Patient Classification 1\Patient 1\Session 1\Subject1.ASF
:FULLY-SPECIFIED
:DEGREES
1309
root -0.674164 17.5747 8.24502 3.43197 -0.00424591 -8.04528
lowerback -0.60006 3.40393 6.43494
upperback -9.80669 4.97411 0.655844
thorax -9.61447 1.94964 -3.23998
lowerneck -15.2952 -4.29709 -1.08429
upperneck 30.4718 -7.53413 4.72756
head 12.9658 -2.82251 0.838341
rclavicle 0 -2.38542e-014
rhumerus 16.2802 52.4265 -49.6497
rradius 87.0793
rwrist 17.2309
rhand -5.24047 -32.6494
rfingers 7.12502
rthumb 20.5624 -421.58
lclavicle 0 -2.38542e-014
lhumerus -28.1274 -33.8914 97.9912
lradius 104.529
lwrist 19.6801
lhand -44.0225 -14.2844
lfingers 7.12502
lthumb -16.8429 15.0052
rfemur 1.93026 19.2835 26.6662
rtibia 6.07735
rfoot -15.1952 -21.0437
rtoes -2.03712
lfemur 8.25945 -31.9295 -13.4771
ltibia -1.68485
lfoot -13.3005 40.8055
ltoes 1.29632
1310
root -0.680415 17.5699 8.24981 3.30899 0.878364 -8.25336
lowerback -0.545241 3.24823 5.96598
upperback -9.68676 4.76718 0.956566
thorax -9.58713 1.90635 -2.65084
lowerneck -15.5004 -4.66995 -1.87332
upperneck 30.0477 -7.93659 5.09126
head 12.904 -3.04933 1.041
rclavicle 1.59028e-014 -1.66979e-014
rhumerus 14.1258 57.5622 -48.3645
rradius 89.4297
rwrist 16.8478
rhand -3.50086 -31.6096
rfingers 7.12502
rthumb 22.2332 -420.351
lclavicle 1.59028e-014 -1.66979e-014
lhumerus -27.299 -33.6865 98.1972
lradius 104.072
lwrist 19.2781
lhand -44.081 -14.2801
lfingers 7.12502
lthumb -16.8991 15.0047
rfemur 2.27018 19.2786 27.0984
rtibia 5.90563
rfoot -15.4421 -21.827
rtoes -1.58658
lfemur 8.05248 -32.0947 -13.0471
ltibia -1.66452
lfoot -12.6528 40.2478
ltoes 0.035541
1311
root -0.686932 17.5672 8.25409 3.2502 1.97706 -8.39647
lowerback -0.52733 3.02481 6.15549
upperback -9.55755 4.45877 0.780486
thorax -9.45275 1.73838 -2.91973
lowerneck -15.5996 -4.90917 -2.18848
upperneck 29.4548 -8.3009 5.56561
head 12.7398 -3.19697 1.21206
rclavicle 6.55989e-015 -2.46493e-014
rhumerus 11.585 62.4033 -48.5061
rradius 92.8069
rwrist 15.3183
rhand -1.65217 -30.8934
rfingers 7.12502
rthumb 24.007 -419.412
lclavicle 6.55989e-015 -2.46493e-014
lhumerus -26.5878 -33.7063 97.7413
lradius 103.678
lwrist 19.2602
lhand -44.0409 -14.688
lfingers 7.12502
lthumb -16.8605 14.6
rfemur 2.50732 19.2671 27.4432
rtibia 5.78454
rfoot -15.8105 -22.767
rtoes -0.656514
lfemur 7.60712 -32.2637 -12.5455
ltibia -1.60001
lfoot -11.9479 39.4867
ltoes -1.16618
1312
root -0.693917 17.5656 8.25638 3.26958 3.15123 -8.54692
lowerback -0.504551 2.75704 6.06193
upperback -9.52286 4.10111 0.827107
thorax -9.46859 1.57371 -2.79716
lowerneck -15.5733 -5.10496 -2.56126
upperneck 28.9019 -8.50438 5.79583
head 12.55 -3.31404 1.32749
rclavicle 1.96797e-014 2.62396e-014
rhumerus 9.14432 67.3573 -48.6783
rradius 96.4084
rwrist 15.1424
rhand -2.96401 -30.2792
rfingers 7.12502
rthumb 22.7485 -418.958
lclavicle 1.96797e-014 2.62396e-014
lhumerus -26.355 -33.4892 97.7885
lradius 103.356
lwrist 19.3939
lhand -43.8335 -15.1307
lfingers 7.12502
lthumb -16.6609 14.1742
rfemur 2.56342 19.2053 27.7408
rtibia 5.75222
rfoot -16.2791 -23.7168
rtoes 0.52862
lfemur 6.95376 -32.384 -11.8972
ltibia -1.52945
lfoot -11.0798 38.5887
ltoes -2.6274
1313
root -0.697103 17.5647 8.26053 3.33993 4.24645 -8.54276
lowerback -0.328312 2.47924 5.67731
upperback -9.62361 3.74255 0.968242
thorax -9.74697 1.42618 -2.42413
lowerneck -15.4423 -5.28146 -2.96256
upperneck 28.4275 -8.57705 5.70631
head 12.3486 -3.41796 1.35027
rclavicle 2.0276e-014 1.51076e-014
rhumerus 6.30198 71.1662 -49.7702
rradius 100.764
rwrist 15.1377
rhand -2.56317 -29.9934
rfingers 7.12502
rthumb 23.1331 -418.625
lclavicle 2.0276e-014 1.51076e-014
lhumerus -26.6838 -33.2088 98.2077
lradius 103.175
lwrist 19.3304
lhand -43.7945 -15.061
lfingers 7.12502
lthumb -16.6234 14.2471
rfemur 2.55223 18.9957 27.7839
rtibia 5.68662
rfoot -16.6156 -24.5021
rtoes 1.26244
lfemur 6.41942 -32.8725 -11.585
ltibia -1.52293
lfoot -10.4225 38.0635
ltoes -3.66152
